<?xml version="1.0" encoding="UTF-8" standalone="no"?>
<svg
   xmlns:dc="http://purl.org/dc/elements/1.1/"
   xmlns:cc="http://creativecommons.org/ns#"
   xmlns:rdf="http://www.w3.org/1999/02/22-rdf-syntax-ns#"
   xmlns:svg="http://www.w3.org/2000/svg"
   xmlns="http://www.w3.org/2000/svg"
   xmlns:sodipodi="http://sodipodi.sourceforge.net/DTD/sodipodi-0.dtd"
   xmlns:inkscape="http://www.inkscape.org/namespaces/inkscape"
   width="90px"
   height="32px"
   viewBox="0 0 90 32"
   version="1.1"
   id="svg23"
   sodipodi:docname="logo myview.svg"
   inkscape:version="0.92.4 5da689c313, 2019-01-14">
  <metadata
     id="metadata27">
    <rdf:RDF>
      <cc:Work
         rdf:about="">
        <dc:format>image/svg+xml</dc:format>
        <dc:type
           rdf:resource="http://purl.org/dc/dcmitype/StillImage" />
      </cc:Work>
    </rdf:RDF>
  </metadata>
  <sodipodi:namedview
     pagecolor="#ffffff"
     bordercolor="#666666"
     borderopacity="1"
     objecttolerance="10"
     gridtolerance="10"
     guidetolerance="10"
     inkscape:pageopacity="0"
     inkscape:pageshadow="2"
     inkscape:window-width="2560"
     inkscape:window-height="1380"
     id="namedview25"
     showgrid="false"
     inkscape:zoom="3.8444444"
     inkscape:cx="45"
     inkscape:cy="16"
     inkscape:window-x="0"
     inkscape:window-y="23"
     inkscape:window-maximized="1"
     inkscape:current-layer="svg23" />
  <!-- Generator: Sketch 50.2 (55047) - http://www.bohemiancoding.com/sketch -->
  <title
     id="title2">logo myview</title>
  <desc
     id="desc4">Created with Sketch.</desc>
  <defs
     id="defs6" />
  <g
     style="fill:#1d93fc;fill-rule:evenodd;stroke:none;stroke-width:1;fill-opacity:1"
     id="g18">
    <path
       style="fill:#1d93fc;fill-opacity:1"
       inkscape:connector-curvature="0"
       id="Fill-1"
       d="M 0,14.361825 C 0,13.659509 0.36478125,13.269333 1.0684687,13.269333 H 2.084625 c 0.7036875,0 1.0684688,0.390176 1.0684688,1.092492 V 15.168 c 0,0.286035 -0.052313,0.598456 -0.052313,0.598456 h 0.052313 c 0.651375,-1.300772 2.2668749,-2.808982 4.3520624,-2.808982 2.0061563,0 3.3353438,0.93614 3.8823748,2.730666 h 0.05231 c 0.703687,-1.378526 2.449687,-2.730666 4.534031,-2.730666 2.762437,0 4.352062,1.560421 4.352062,5.045614 v 7.438035 c 0,0.72814 -0.390937,1.09221 -1.094624,1.09221 h -1.120219 c -0.729844,0 -1.094625,-0.36407 -1.094625,-1.09221 v -6.814035 c 0,-1.508492 -0.286875,-2.652913 -1.823907,-2.652913 -2.241281,0 -3.387937,2.288562 -3.387937,4.603509 v 4.863439 c 0,0.72814 -0.364781,1.09221 -1.068188,1.09221 H 9.5897813 c -0.7036875,0 -1.094625,-0.36407 -1.094625,-1.09221 v -6.814035 c 0,-1.430456 -0.2084063,-2.652913 -1.7721563,-2.652913 -2.3450625,0 -3.4394062,2.392702 -3.4394062,4.603509 v 4.863439 c 0,0.72814 -0.3650625,1.09221 -1.0684688,1.09221 H 1.0684687 C 0.36478125,26.533333 0,26.169263 0,25.441123 Z" />
    <path
       style="fill:#1d93fc;fill-opacity:1"
       inkscape:connector-curvature="0"
       id="Fill-3"
       d="m 23.453072,29.030119 c 0.234562,0.104141 0.547031,0.234106 0.93825,0.234106 0.964125,0 1.719844,-0.832281 2.110781,-1.768422 l 0.495,-1.170245 -5.055469,-11.781895 c -0.338625,-0.754245 0,-1.274105 0.833907,-1.274105 h 1.407375 c 0.651093,0 1.016156,0.286035 1.224562,0.88421 l 2.502,6.762106 c 0.234281,0.702035 0.494719,1.794245 0.494719,1.794245 h 0.05203 c 0,0 0.234563,-1.04028 0.44325,-1.742316 l 2.345344,-6.787929 c 0.182531,-0.624281 0.573187,-0.910316 1.224844,-0.910316 h 1.30275 c 0.80775,0 1.146656,0.494035 0.886218,1.248281 l -5.472562,13.99214 c -0.911813,2.419088 -2.840344,3.485193 -4.79475,3.485193 -0.729844,0 -1.381219,-0.208281 -1.850344,-0.390176 -0.6255,-0.233824 -0.781594,-0.805894 -0.495,-1.40435 l 0.234563,-0.572071 c 0.286593,-0.598456 0.729562,-0.702315 1.172531,-0.598456" />
    <path
       style="fill:#1d93fc;fill-opacity:1"
       inkscape:connector-curvature="0"
       id="Fill-5"
       d="m 35.518247,14.517782 c -0.260438,-0.754245 0.05231,-1.24828 0.860062,-1.24828 h 1.224563 c 0.6255,0 1.042594,0.286035 1.225125,0.910316 l 2.475281,7.30807 c 0.260719,0.78007 0.495281,2.002807 0.495281,2.002807 h 0.05203 c 0,0 0.208406,-1.222737 0.469125,-2.002807 l 2.475562,-7.30807 c 0.182531,-0.624281 0.599344,-0.910316 1.224844,-0.910316 h 1.224562 c 0.80775,0 1.146657,0.494035 0.886219,1.24828 L 44.117747,25.64901 c -0.208406,0.624562 -0.599625,0.884492 -1.224844,0.884492 h -2.084344 c -0.625781,0 -1.042593,-0.25993 -1.225125,-0.884492 z" />
    <path
       style="fill:#1d93fc;fill-opacity:1"
       inkscape:connector-curvature="0"
       id="Fill-7"
       d="m 50.241572,14.361825 c 0,-0.702316 0.364781,-1.092492 1.068469,-1.092492 h 1.146375 c 0.703687,0 1.068468,0.390176 1.068468,1.092492 v 11.079298 c 0,0.72814 -0.364781,1.09221 -1.068468,1.09221 h -1.146375 c -0.703688,0 -1.068469,-0.36407 -1.068469,-1.09221 z" />
    <path
       style="fill:#1d93fc;fill-opacity:1"
       inkscape:connector-curvature="0"
       id="Fill-9"
       d="m 65.35575,18.392786 c -0.05231,-1.846456 -1.172813,-2.938947 -2.68425,-2.938947 -1.693688,0 -2.892375,1.170526 -3.205125,2.938947 z m -2.606063,-5.435228 c 3.778594,0 5.889375,2.678456 5.889375,6.319719 0,0.57207 -0.494999,1.118316 -1.146656,1.118316 h -8.104219 c 0.208407,2.392702 1.980282,3.641263 3.987001,3.641263 1.224562,0 2.241281,-0.46821 2.866218,-0.858386 0.651656,-0.31214 1.120782,-0.233824 1.459406,0.364351 l 0.312751,0.51986 c 0.312749,0.598456 0.208406,1.118596 -0.364782,1.456561 -0.859781,0.545965 -2.423531,1.326316 -4.508156,1.326316 -4.403813,0 -7.140094,-3.172772 -7.140094,-6.944281 0,-4.083087 2.762438,-6.943719 6.749156,-6.943719 z" />
    <path
       style="fill:#1d93fc;fill-opacity:1"
       inkscape:connector-curvature="0"
       id="Fill-11"
       d="m 69.968081,14.491761 c -0.208406,-0.72814 0.156375,-1.222175 0.911813,-1.222175 h 1.251 c 0.651375,0 1.042312,0.31214 1.172531,0.962246 l 2.136938,7.750456 c 0.156375,0.702035 0.260718,1.40407 0.260718,1.40407 h 0.05203 c 0,0 0.104063,-0.702035 0.286594,-1.40407 l 2.241281,-7.750456 c 0.130219,-0.624 0.547032,-0.936422 1.198407,-0.936422 h 0.990281 c 0.651375,0 1.042594,0.312422 1.198969,0.936422 l 2.214843,7.750456 c 0.208407,0.702035 0.286594,1.40407 0.286594,1.40407 h 0.05203 c 0,0 0.104344,-0.702035 0.286594,-1.40407 l 2.110782,-7.750456 c 0.156656,-0.650106 0.547312,-0.962246 1.198687,-0.962246 h 1.198688 c 0.781875,0 1.120781,0.494035 0.912374,1.222175 l -3.41381,11.131228 C 86.333175,26.24727 85.9158,26.533305 85.2903,26.533305 h -1.745719 c -0.651375,0 -1.068187,-0.31214 -1.224843,-0.93614 L 80.3133,18.965305 c -0.208406,-0.702316 -0.31275,-1.430456 -0.31275,-1.430456 h -0.05203 c 0,0 -0.130219,0.72814 -0.338907,1.430456 l -2.006437,6.63186 c -0.156094,0.624 -0.547031,0.93614 -1.198687,0.93614 h -1.798032 c -0.625218,0 -1.016156,-0.286035 -1.198968,-0.910316 z" />
    <path
       style="fill:#1d93fc;fill-opacity:1"
       inkscape:connector-curvature="0"
       id="Fill-14"
       d="m 77.035866,3.9785825 c 0,-2.1973334 -1.784532,-3.978666710526 -3.986157,-3.978666710526 -2.201343,0 -3.986156,1.781333310526 -3.986156,3.978666710526 0,2.1970526 1.784813,3.9783859 3.986156,3.9783859 2.201625,0 3.986157,-1.7813333 3.986157,-3.9783859" />
    <path
       style="fill:#1d93fc;fill-opacity:1"
       inkscape:connector-curvature="0"
       id="Fill-17"
       d="m 66.40605,3.9785825 c 0,-2.1973334 -1.784812,-3.978666710526 -3.986156,-3.978666710526 -2.201625,0 -3.986438,1.781333310526 -3.986438,3.978666710526 0,2.1970526 1.784813,3.9783859 3.986438,3.9783859 2.201344,0 3.986156,-1.7813333 3.986156,-3.9783859" />
    <path
       style="fill:#1d93fc;fill-opacity:1"
       inkscape:connector-curvature="0"
       id="Fill-20"
       d="m 48.971419,1.1651649 c -1.380375,1.3776842 -3.618281,1.3776842 -4.998656,0 C 43.251637,0.44544561 42.254888,-2.8070176e-5 41.154356,-2.8070176e-5 c -2.201906,0 -3.986437,1.781333370176 -3.986437,3.978666670176 0,2.1970526 1.784531,3.978386 3.986437,3.978386 1.100532,0 2.097281,-0.4454737 2.818407,-1.1654737 1.380375,-1.3774035 3.618281,-1.3774035 4.998656,0 0.721125,0.72 1.717875,1.1654737 2.818406,1.1654737 2.201625,0 3.986438,-1.7813334 3.986438,-3.978386 0,-2.1973333 -1.784813,-3.978666670176 -3.986438,-3.978666670176 -1.100531,0 -2.097281,0.445473680176 -2.818406,1.165192970176 z" />
    <path
       style="fill:#1d93fc;fill-opacity:1"
       inkscape:connector-curvature="0"
       id="Fill-23"
       d="m 34.510528,3.9785825 c 0,-2.1973334 -1.784812,-3.978666710526 -3.986437,-3.978666710526 -2.201344,0 -3.986157,1.781333310526 -3.986157,3.978666710526 0,2.1970526 1.784813,3.9783859 3.986157,3.9783859 2.201625,0 3.986437,-1.7813333 3.986437,-3.9783859" />
  </g>
</svg>
